<?xml version="1.0" encoding="UTF-8" standalone="no"?>
<!-- Created with Inkscape (http://www.inkscape.org/) -->

<svg
   xmlns:dc="http://purl.org/dc/elements/1.1/"
   xmlns:cc="http://creativecommons.org/ns#"
   xmlns:rdf="http://www.w3.org/1999/02/22-rdf-syntax-ns#"
   xmlns:svg="http://www.w3.org/2000/svg"
   xmlns="http://www.w3.org/2000/svg"
   xmlns:xlink="http://www.w3.org/1999/xlink"
   xmlns:sodipodi="http://sodipodi.sourceforge.net/DTD/sodipodi-0.dtd"
   xmlns:inkscape="http://www.inkscape.org/namespaces/inkscape"
   width="134.03354"
   height="305.70053"
   id="svg19098"
   sodipodi:version="0.32"
   inkscape:version="0.47 r22583"
   sodipodi:docname="key.svg"
   inkscape:output_extension="org.inkscape.output.svg.inkscape"
   version="1.1">
  <defs
     id="defs19100">
    <linearGradient
       inkscape:collect="always"
       id="linearGradient19745">
      <stop
         style="stop-color:#ffffff;stop-opacity:1;"
         offset="0"
         id="stop19747" />
      <stop
         style="stop-color:#ffffff;stop-opacity:0;"
         offset="1"
         id="stop19749" />
    </linearGradient>
    <linearGradient
       id="linearGradient19727">
      <stop
         style="stop-color:#000000;stop-opacity:1;"
         offset="0"
         id="stop19729" />
      <stop
         style="stop-color:#000000;stop-opacity:0;"
         offset="1"
         id="stop19731" />
    </linearGradient>
    <inkscape:perspective
       sodipodi:type="inkscape:persp3d"
       inkscape:vp_x="0 : 526.18109 : 1"
       inkscape:vp_y="0 : 1000 : 0"
       inkscape:vp_z="744.09448 : 526.18109 : 1"
       inkscape:persp3d-origin="372.04724 : 350.78739 : 1"
       id="perspective19106" />
    <linearGradient
       inkscape:collect="always"
       xlink:href="#linearGradient19727"
       id="linearGradient19733"
       x1="192.6808"
       y1="401.73438"
       x2="163.1875"
       y2="401.73438"
       gradientUnits="userSpaceOnUse"
       spreadMethod="pad" />
    <radialGradient
       inkscape:collect="always"
       xlink:href="#linearGradient19745"
       id="radialGradient19753"
       cx="157.3037"
       cy="444.42108"
       fx="157.3037"
       fy="444.42108"
       r="11"
       gradientTransform="matrix(1,0,0,2.450854,0,-597.3664)"
       gradientUnits="userSpaceOnUse" />
  </defs>
  <sodipodi:namedview
     id="base"
     pagecolor="#ffffff"
     bordercolor="#666666"
     borderopacity="1.0"
     gridtolerance="10000"
     guidetolerance="10"
     objecttolerance="10"
     inkscape:pageopacity="0.0"
     inkscape:pageshadow="2"
     inkscape:zoom="1.1047263"
     inkscape:cx="260.88177"
     inkscape:cy="205.8482"
     inkscape:document-units="px"
     inkscape:current-layer="layer1"
     showgrid="false"
     inkscape:window-width="1247"
     inkscape:window-height="783"
     inkscape:window-x="671"
     inkscape:window-y="24"
     inkscape:object-nodes="true"
     inkscape:object-paths="true"
     inkscape:window-maximized="0" />
  <metadata
     id="metadata19103">
    <rdf:RDF>
      <cc:Work
         rdf:about="">
        <dc:format>image/svg+xml</dc:format>
        <dc:type
           rdf:resource="http://purl.org/dc/dcmitype/StillImage" />
        <dc:title></dc:title>
      </cc:Work>
    </rdf:RDF>
  </metadata>
  <g
     inkscape:label="Layer 1"
     inkscape:groupmode="layer"
     id="layer1"
     transform="translate(-96.202159,-206.86196)">
    <path
       style="fill:#edd400;fill-opacity:1;fill-rule:evenodd;stroke:#000000;stroke-width:2;stroke-linecap:round;stroke-linejoin:round;stroke-miterlimit:4;stroke-opacity:1;stroke-dasharray:none"
       d="m 122.1875,457.53125 0,5.25 c 4.43756,1.51995 9.75515,1.64939 18.65625,1.65625 0.57409,-1.19712 1.39812,-1.96875 2.3125,-1.96875 1.73349,-10e-6 3.15625,2.70745 3.15625,6.03125 0,3.32382 -1.42277,6.03125 -3.15625,6.03125 -1.73348,0 -3.125,-2.70744 -3.125,-6.03125 0,-0.12805 0.0271,-0.24893 0.0312,-0.375 -7.06421,0.009 -12.5642,0.1516 -17.875,1.375 l 0,7.40625 8.28125,0 c 0.2243,-2.51005 1.33628,-4.4375 2.6875,-4.4375 1.51251,0 2.75,2.3947 2.75,5.34375 0,2.94907 -1.2375,5.34375 -2.75,5.34375 -0.78754,0 -1.50004,-0.64914 -2,-1.6875 -5.69704,0.21821 -8.96875,1.67533 -8.96875,8.21875 0,10e-6 12.24682,0 14.5,0 0.42442,-1.88015 1.34816,-3.21875 2.46875,-3.21875 1.51251,0 2.75,2.3947 2.75,5.34375 0,2.94907 -1.2375,5.34375 -2.75,5.34375 -1.07483,0 -1.95749,-1.21091 -2.40625,-2.96875 -13.53427,0.32904 -14.5243,5.64191 -14.5625,6.96875 -0.005,0.18955 0,0.3125 0,0.3125 l 0,2 19.0625,0 c 0.54942,-5.5593 5.23449,-9.90625 10.9375,-9.90625 5.70301,-10e-6 10.38808,4.34696 10.9375,9.90625 l 11.09375,0 0,-45.9375 -52.03125,0 z"
       id="rect19662" />
    <path
       id="path19108"
       style="fill:#edd400;fill-opacity:1;fill-rule:evenodd;stroke:#000000;stroke-width:2;stroke-linecap:round;stroke-linejoin:round;stroke-miterlimit:4;stroke-opacity:1"
       d="m 163.21893,207.86196 c 8.24723,0 5.64167,5.57686 13.68213,7.41204 8.04046,1.83518 8.11263,-4.3199 15.54313,-0.74156 7.4305,3.57834 2.66327,7.4724 9.11121,12.61447 6.44795,5.14207 9.18357,-0.37216 14.32564,6.07579 5.14206,6.44795 -0.84264,7.88795 2.7357,15.31845 3.57834,7.4305 8.43558,3.6493 10.27077,11.68976 1.83518,8.04045 -4.18165,6.74119 -4.18165,14.98842 0,8.24723 6.01683,6.94797 4.18164,14.98843 -10.53706,18.10722 -18.78049,5.52858 -36.44331,17.69846 -7.4305,3.57834 -7.50268,25.42326 -15.54314,27.25844 -8.04045,1.83518 -5.43489,7.41204 -13.68213,7.41204 -8.24723,0 -5.64167,-5.57686 -13.68213,-7.41204 -8.04045,-1.83518 -8.11263,-23.6801 -15.54313,-27.25844 -15.30852,-14.30211 -28.5089,2.22957 -36.44331,-17.69847 -1.83518,-8.04045 4.18164,-6.74119 4.18164,-14.98842 0,-8.24723 -6.01682,-6.94797 -4.18164,-14.98843 1.83518,-8.04045 6.69242,-4.25925 10.27076,-11.68975 3.57834,-7.4305 -2.40636,-8.87051 2.73571,-15.31845 5.14206,-6.44795 7.87768,-0.93373 14.32563,-6.07579 6.44795,-5.14207 1.68071,-9.03613 9.11121,-12.61447 7.4305,-3.57834 7.50268,2.57674 15.54314,0.74156 8.04046,-1.83518 5.4349,-7.41204 13.68213,-7.41204 z m 10.96496,27.70639 c 0,6.072 -4.928,11 -11.00001,11 -6.07199,0 -10.99999,-4.928 -10.99999,-11 0,-6.07199 4.928,-10.99999 10.99999,-10.99999 6.07201,0 11.00001,4.928 11.00001,10.99999 z"
       sodipodi:nodetypes="csssssssccsssccsssssssccsssc" />
    <path
       sodipodi:type="inkscape:offset"
       inkscape:radius="-4.4197993"
       inkscape:original="M 163.21875 207.875 C 154.97152 207.875 157.57171 213.44607 149.53125 215.28125 C 141.49079 217.11643 141.43049 210.95291 134 214.53125 C 126.5695 218.10959 131.32295 222.01418 124.875 227.15625 C 118.42705 232.29831 115.70456 226.7708 110.5625 233.21875 C 105.42043 239.66669 111.39084 241.10075 107.8125 248.53125 C 104.23416 255.96175 99.397684 252.1783 97.5625 260.21875 C 95.72732 268.25921 101.71875 266.97152 101.71875 275.21875 C 101.71875 283.46598 95.727324 282.17829 97.5625 290.21875 C 105.49691 310.14679 118.69147 293.60414 134 307.90625 C 141.4305 311.48459 141.4908 333.32106 149.53125 335.15625 C 157.57171 336.99143 154.97152 342.56251 163.21875 342.5625 C 171.46599 342.5625 168.8658 336.99142 176.90625 335.15625 C 184.94671 333.32107 185.00701 311.48459 192.4375 307.90625 C 210.10032 295.73637 218.33794 308.32597 228.875 290.21875 C 230.71019 282.17829 224.71875 283.46598 224.71875 275.21875 C 224.71875 266.97152 230.71018 268.25921 228.875 260.21875 C 227.03981 252.17829 222.20334 255.96175 218.625 248.53125 C 215.04666 241.10075 221.01706 239.6667 215.875 233.21875 C 210.73293 226.7708 208.01045 232.29832 201.5625 227.15625 C 195.11456 222.01418 199.86801 218.10959 192.4375 214.53125 C 185.007 210.95291 184.94671 217.11643 176.90625 215.28125 C 168.86579 213.44607 171.46598 207.87501 163.21875 207.875 z M 163.1875 224.5625 C 169.25951 224.5625 174.1875 229.49051 174.1875 235.5625 C 174.18751 241.63451 169.25951 246.5625 163.1875 246.5625 C 157.11551 246.56251 152.1875 241.6345 152.1875 235.5625 C 152.18751 229.49052 157.11551 224.5625 163.1875 224.5625 z "
       style="fill:#c4a000;fill-opacity:1;fill-rule:evenodd;stroke:#000000;stroke-width:2;stroke-linecap:round;stroke-linejoin:round;stroke-miterlimit:4;stroke-opacity:1"
       id="path19759"
       d="m 163.21875,212.28125 c -3.12841,0 -2.32789,0.0237 -3.5625,1.46875 -1.23461,1.44507 -4.08933,4.68726 -9.15625,5.84375 -5.06909,1.15698 -9.01367,-0.54259 -10.75,-1.3125 -1.73633,-0.76991 -1.02648,-1.13798 -3.84375,0.21875 -2.81711,1.35665 -2.07553,1.03367 -2.5625,2.875 -0.48697,1.84133 -1.65449,6.00886 -5.71875,9.25 -4.06462,3.24142 -8.35325,3.44043 -10.25,3.5 -1.89675,0.0596 -1.39364,-0.60161 -3.34375,1.84375 -1.95155,2.44716 -1.45225,1.8545 -1.09375,3.71875 0.3585,1.86425 1.09807,6.06885 -1.15625,10.75 -2.25415,4.68079 -6.00846,6.74532 -7.6875,7.625 -1.67904,0.87968 -1.52206,0.0726 -2.21875,3.125 -0.69679,3.05283 -0.50453,2.2862 0.625,3.8125 1.12953,1.5263 3.625,5.02484 3.625,10.21875 0,5.19391 -2.49547,8.69245 -3.625,10.21875 -1.05151,1.42088 -1.22057,1.09114 -0.6875,3.46875 1.6882,4.08634 3.30562,5.7675 4.8125,6.625 1.557,0.88602 3.56991,1.15116 6.5,1.21875 5.82582,0.13438 15.05652,-0.2042 23.75,7.8125 0.0513,0.0473 0.10501,0.0771 0.15625,0.125 2.65697,1.72802 4.21558,4.29548 5.40625,6.90625 1.36009,2.98227 2.34763,6.21233 3.3125,9.25 0.96487,3.03767 1.92986,5.87803 2.90625,7.71875 0.97639,1.84072 1.6863,2.24531 1.84375,2.28125 5.06692,1.15649 7.92164,4.39868 9.15625,5.84375 1.23461,1.44507 0.43409,1.46875 3.5625,1.46875 3.12842,0 2.32789,-0.0237 3.5625,-1.46875 1.23461,-1.44507 4.08933,-4.68726 9.15625,-5.84375 0.15745,-0.0359 0.86736,-0.44053 1.84375,-2.28125 0.97639,-1.84072 1.94138,-4.68108 2.90625,-7.71875 0.96487,-3.03767 1.95241,-6.26773 3.3125,-9.25 1.27538,-2.79652 2.93829,-5.57424 5.96875,-7.28125 l -0.0312,-0.0312 c 0.16613,-0.11447 0.30358,-0.17061 0.46875,-0.28125 0.0435,-0.0216 0.081,-0.0413 0.125,-0.0625 9.4049,-6.25401 17.24442,-6.45649 22.28125,-7.03125 2.57386,-0.2937 4.33835,-0.67027 6.09375,-1.75 1.64978,-1.01477 3.54228,-2.96412 5.75,-6.59375 0.3881,-1.82825 0.25578,-1.80815 -0.71875,-3.125 -1.12953,-1.5263 -3.625,-5.02484 -3.625,-10.21875 0,-5.19391 2.49547,-8.69245 3.625,-10.21875 1.12953,-1.5263 1.32179,-0.75967 0.625,-3.8125 -0.6967,-3.05241 -0.53971,-2.24532 -2.21875,-3.125 -1.67904,-0.87968 -5.43335,-2.94421 -7.6875,-7.625 -2.25432,-4.68115 -1.51475,-8.88575 -1.15625,-10.75 0.3585,-1.86425 0.8578,-1.27158 -1.09375,-3.71875 -1.95011,-2.44536 -1.447,-1.78418 -3.34375,-1.84375 -1.89675,-0.0596 -6.18538,-0.25857 -10.25,-3.5 -4.06426,-3.24114 -5.23178,-7.40867 -5.71875,-9.25 -0.48697,-1.84133 0.25461,-1.51835 -2.5625,-2.875 -2.81728,-1.35673 -2.10743,-0.98866 -3.84375,-0.21875 -1.73632,0.76991 -5.68092,2.46948 -10.75,1.3125 -5.06692,-1.15649 -7.92164,-4.39868 -9.15625,-5.84375 -1.23461,-1.44507 -0.43409,-1.46875 -3.5625,-1.46875 z m -0.0312,7.875 c 8.4634,0 15.40625,6.94287 15.40625,15.40625 1e-5,8.4634 -6.94286,15.40625 -15.40625,15.40625 -8.46339,1e-5 -15.40625,-6.94286 -15.40625,-15.40625 1e-5,-8.46337 6.94286,-15.40625 15.40625,-15.40625 z" />
    <path
       style="fill:#edd400;fill-opacity:1;stroke:#000000;stroke-width:1.99999988;stroke-linecap:round;stroke-linejoin:round;stroke-miterlimit:4;stroke-opacity:1"
       d="m 163.1875,311.90625 c -6.094,0 -11,10.91878 -11,17.03125 l 0,176.59375 c 0,3.32381 4.928,6.03125 11,6.03125 6.072,0 11,-2.70744 11,-6.03125 l 0,-176.59375 c 0,-6.11246 -4.906,-17.03125 -11,-17.03125 z"
       id="rect19644"
       sodipodi:nodetypes="cccsccc" />
    <path
       sodipodi:nodetypes="cccsccc"
       style="fill:url(#radialGradient19753);fill-opacity:1;stroke:none"
       d="m 163.1875,311.90625 c -6.094,0 -11,10.91878 -11,17.03125 l 0,176.59375 c 0,3.32381 4.928,6.03125 11,6.03125 6.072,0 11,-2.70744 11,-6.03125 l 0,-176.59375 c 0,-6.11246 -4.906,-17.03125 -11,-17.03125 z"
       id="path19735" />
    <path
       sodipodi:nodetypes="cccsccc"
       id="path19755"
       d="m 163.1875,311.90625 c -6.094,0 -11,10.91878 -11,17.03125 l 0,176.59375 c 0,3.32381 4.928,6.03125 11,6.03125 6.072,0 11,-2.70744 11,-6.03125 l 0,-176.59375 c 0,-6.11246 -4.906,-17.03125 -11,-17.03125 z"
       style="fill:none;stroke:#000000;stroke-width:1.99999988;stroke-linecap:round;stroke-linejoin:round;stroke-miterlimit:4;stroke-opacity:1" />
    <path
       id="path19725"
       d="m 163.1875,311.90625 c -6.094,0 -11,10.91878 -11,17.03125 l 0,176.59375 c 0,3.32381 4.928,6.03125 11,6.03125 6.072,0 11,-2.70744 11,-6.03125 l 0,-176.59375 c 0,-6.11246 -4.906,-17.03125 -11,-17.03125 z"
       style="fill:url(#linearGradient19733);fill-opacity:1;stroke:none"
       sodipodi:nodetypes="cccsccc" />
  </g>
</svg>
